<svg width="64" height="64" viewBox="0 0 64 64" fill="none" xmlns="http://www.w3.org/2000/svg">
<path fill-rule="evenodd" clip-rule="evenodd" d="M23.0002 9.15949C20.9051 9.87637 19.7016 11.073 18.901 13.235L18.5946 14.0625L18.6186 24.5895L18.6426 35.1164L17.5905 36.152C16.0162 37.7016 14.9509 39.449 14.4441 41.3125C14.1577 42.3659 14.0532 44.7662 14.2427 45.9406C15.1046 51.2836 19.6674 55.1467 25.1236 55.1532C28.3205 55.157 31.1087 53.9512 33.2864 51.6235C36.0694 48.6484 36.9229 44.6319 35.6097 40.6901C34.9872 38.8217 34.0906 37.4364 32.6479 36.1137L31.7736 35.3125L31.7147 24.8125C31.6645 15.8599 31.6275 14.2155 31.4637 13.654C30.7499 11.2062 29.2244 9.67124 26.9097 9.07137C25.7725 8.77674 24.0022 8.81662 23.0002 9.15949ZM37.0002 9.75112C35.6426 9.98474 34.2539 10.6731 33.3297 11.5706L32.8752 12.012V21.6502V31.2886L40.094 31.2136C48.0796 31.1307 48.1137 31.1275 49.5846 30.3049C51.7204 29.1105 53.0929 27.2427 53.5695 24.8821C54.4606 20.4692 51.2827 16.1025 46.8525 15.652L45.9719 15.5625L45.6955 14.7985C44.9961 12.8646 43.3321 10.9949 41.68 10.2862C40.3695 9.72424 38.4394 9.50362 37.0002 9.75112ZM23.535 11.5066C22.5989 11.877 21.6057 12.8722 21.2341 13.8125L20.9377 14.5625L20.9025 25.625L20.8671 36.6875L20.4025 36.9599C18.7417 37.933 17.3166 39.9304 16.7561 42.0704C16.2466 44.0155 16.4946 46.1436 17.4615 48.1235C17.9352 49.0937 18.215 49.4802 18.9986 50.2485C20.1322 51.3596 20.981 51.8902 22.4676 52.4166C23.4612 52.7686 23.7017 52.8044 25.0627 52.8032C26.78 52.8016 27.8135 52.5511 29.3127 51.7729C30.3685 51.2249 32.0101 49.6457 32.5989 48.612C33.4146 47.1795 33.6529 46.33 33.717 44.625C33.7877 42.7456 33.6035 41.805 32.8652 40.2782C32.3091 39.1279 31.0739 37.7002 30.1834 37.1784C29.168 36.5832 29.2609 37.7302 29.2222 25.3062L29.1877 14.1875L28.8402 13.4799C28.4374 12.6596 27.7125 11.9561 26.8905 11.5881C26.0341 11.2045 24.3989 11.1649 23.535 11.5066ZM24.379 13.3891C23.8751 13.5901 23.2652 14.11 23.0314 14.5377C22.8284 14.9089 22.8102 15.7687 22.7776 26.5625L22.7426 38.1875L21.9827 38.625C20.1765 39.6651 18.998 41.8464 19.0017 44.143C19.0067 47.2744 21.2214 49.8121 24.3257 50.2439C27.0042 50.6164 29.5605 49.2272 30.7316 46.7629C31.1427 45.8977 31.1876 45.6956 31.2317 44.5094C31.3145 42.2841 30.8599 40.9984 29.5002 39.6121C29.0534 39.1566 28.3924 38.6346 28.0315 38.4522L27.3752 38.1207V34.3104V30.5H25.5627H23.7502V29.8159V29.1319L25.5315 29.0971L27.3127 29.0625L27.3474 27.2812L27.3821 25.5H25.5661H23.7502V24.75V24H25.5665H27.3827L27.3477 22.4062L27.3127 20.8125L25.5315 20.7779L23.7502 20.7431V20.0625V19.3819L25.5315 19.3471L27.3127 19.3125L27.3506 17.25C27.373 16.0386 27.3336 14.9989 27.2554 14.7304C26.9509 13.6854 25.4224 12.9726 24.379 13.3891ZM41.4065 33.8415C40.812 33.8951 40.7754 33.9616 41.1049 34.3894C41.2311 34.5534 41.7194 35.25 42.19 35.9375C43.34 37.6179 44.1149 38.625 44.2575 38.625C44.3222 38.625 44.3752 38.2312 44.3752 37.75C44.3752 37.2687 44.4271 36.875 44.4905 36.875C44.5539 36.875 44.8026 37.105 45.0431 37.386C45.7029 38.1566 45.791 38.7262 45.6836 41.524L45.5916 43.9214L46.1396 43.5206C46.4411 43.3002 47.0955 42.7519 47.594 42.302L48.5002 41.484V40.6307C48.5002 39.3429 48.1674 37.8059 47.6679 36.7871C46.8841 35.189 45.6046 34.2789 43.6521 33.9306C42.695 33.76 42.4289 33.7495 41.4065 33.8415ZM37.0394 38.1057C36.9697 39.6632 36.9375 41.0052 36.9677 41.0881C37.0002 41.1774 37.3362 41.2537 37.7927 41.2756L38.5627 41.3125L38.6402 42.2657C38.7771 43.9496 39.4672 44.9811 40.9599 45.7327C41.5052 46.0075 42.9752 46.4295 43.7842 46.5436C44.3256 46.62 44.3265 46.623 43.5406 45.6555C42.3094 44.1397 41.2512 42.2057 40.8707 40.7756C40.719 40.2054 40.6157 39.7181 40.6412 39.6929C40.6669 39.6676 41.2502 39.7496 41.9377 39.875C42.6252 40.0004 43.2091 40.0819 43.2354 40.056C43.3197 39.9726 42.094 38.7511 40.9671 37.7957C39.905 36.8954 38.1492 35.6915 37.4894 35.4112L37.166 35.2739L37.0394 38.1057Z" fill="white"/>
</svg>
